# xmcd
# 
# Track frame offsets:
#     150
#     29330
#     49070
#     66175
#     81110
#     104440
#     122860
# 
# Disc length: 3014
# 
# Revision: 7
# Processed by: cddbd v1.5.2PL0 Copyright (c) Steve Scherf et al.
# Submitted via: BonkEnc v1.0.8
# 
DISCID=5b0bc407
DTITLE=Suicide - Suicide (Live at CBGB's 1977) [CD 2)
DYEAR=1978
DGENRE=Rock
TTITLE0=Mr Ray
TTITLE1=Las Vegas Man
TTITLE2=96 Tears
TTITLE3=Keep Your Dreams
TTITLE4=I Remember
TTITLE5=Harlem
TTITLE6=23 Minutes Over Brussels
EXTD=Re-issued 1998
EXTT0=
EXTT1=
EXTT2=
EXTT3=
EXTT4=
EXTT5=
EXTT6=
PLAYORDER=
